<svg width="203" height="203" viewBox="0 0 203 203" fill="none" xmlns="http://www.w3.org/2000/svg">
<path d="M82.4688 95.1562V145.906L126.875 120.531L82.4688 95.1562Z" fill="#3B82F6"/>
<path d="M164.938 177.625H38.0625C34.6986 177.622 31.4734 176.284 29.0948 173.905C26.7162 171.527 25.3784 168.301 25.375 164.938V76.125C25.3784 72.7611 26.7162 69.5359 29.0948 67.1573C31.4734 64.7787 34.6986 63.4409 38.0625 63.4375H164.938C168.301 63.4409 171.527 64.7787 173.905 67.1573C176.284 69.5359 177.622 72.7611 177.625 76.125V164.938C177.622 168.301 176.284 171.527 173.905 173.905C171.527 176.284 168.301 177.622 164.938 177.625ZM38.0625 76.125V164.938H164.938V76.125H38.0625ZM38.0625 38.0625H164.938V50.75H38.0625V38.0625ZM50.75 12.6875H152.25V25.375H50.75V12.6875Z" fill="#3B82F6"/>
</svg>
