<svg width="12" height="22" viewBox="0 0 12 22" fill="none" xmlns="http://www.w3.org/2000/svg">
<path d="M11.7939 1.93645C11.9312 2.07671 12 2.23812 12 2.42046C12 2.6028 11.9312 2.76421 11.7939 2.90447L3.69042 11.1742L11.7939 19.4443C11.9312 19.5844 12 19.7459 12 19.928C12 20.1106 11.9312 20.272 11.7939 20.4122L10.7628 21.4642C10.6254 21.6044 10.4672 21.6741 10.2888 21.6741C10.1101 21.6741 9.95193 21.604 9.81456 21.4642L0.206042 11.6579C0.068392 11.5177 1.27387e-07 11.3566 1.25213e-07 11.1742C1.23039e-07 10.9919 0.0686087 10.8304 0.206042 10.6902L9.81449 0.884567C9.95193 0.74409 10.1099 0.674072 10.289 0.674072C10.4672 0.674072 10.6254 0.744311 10.7628 0.884567L11.7939 1.93645Z" fill="#0B538C"/>
</svg>
