<svg width="1024" height="1024" viewBox="0 0 1024 1024" fill="none" xmlns="http://www.w3.org/2000/svg">
<path fill-rule="evenodd" clip-rule="evenodd" d="M179.929 32H844.071C925.767 32 992 98.2303 992 179.929V844.071C992 925.767 925.767 992 844.071 992H179.929C98.2303 992 32 925.767 32 844.071V179.929C32 98.2303 98.2303 32 179.929 32Z" fill="white"/>
<path fill-rule="evenodd" clip-rule="evenodd" d="M503.946 704.029H543.215C543.215 704.029 555.074 702.722 561.137 696.198C566.71 690.202 566.532 678.949 566.532 678.949C566.532 678.949 565.764 626.257 590.215 618.498C614.329 610.849 645.285 669.422 678.095 691.946C702.907 708.985 721.762 705.255 721.762 705.255L809.501 704.029C809.501 704.029 855.396 701.198 833.633 665.112C831.852 662.165 820.955 638.419 768.395 589.632C713.376 538.569 720.751 546.831 787.021 458.504C827.38 404.713 843.512 371.876 838.47 357.812C833.668 344.413 803.981 347.952 803.981 347.952L705.195 348.563C705.195 348.563 697.866 347.566 692.439 350.814C687.129 353.99 683.722 361.412 683.722 361.412C683.722 361.412 668.08 403.034 647.236 438.437C603.247 513.13 585.655 517.084 578.465 512.438C561.736 501.628 565.917 469.017 565.917 445.843C565.917 373.454 576.897 343.272 544.536 335.459C533.799 332.868 525.889 331.154 498.426 330.874C463.175 330.515 433.347 330.983 416.454 339.258C405.215 344.762 396.545 357.023 401.829 357.729C408.36 358.599 423.143 361.72 430.981 372.385C441.107 386.162 440.753 417.088 440.753 417.088C440.753 417.088 446.571 502.301 427.168 512.883C413.854 520.142 395.587 505.322 356.369 437.556C336.278 402.844 321.104 364.47 321.104 364.47C321.104 364.47 318.182 357.301 312.963 353.463C306.633 348.813 297.789 347.339 297.789 347.339L203.913 347.952C203.913 347.952 189.823 348.345 184.646 354.474C180.04 359.929 184.278 371.198 184.278 371.198C184.278 371.198 257.768 543.141 340.989 629.79C417.303 709.244 503.946 704.029 503.946 704.029Z" fill="#4C75A3"/>
</svg>
